<?xml version="1.0" standalone="no"?>
<!DOCTYPE svg PUBLIC "-//W3C//DTD SVG 20010904//EN"
 "http://www.w3.org/TR/2001/REC-SVG-20010904/DTD/svg10.dtd">
<svg version="1.0" xmlns="http://www.w3.org/2000/svg"
 width="1024.000000pt" height="1024.000000pt" viewBox="0 0 1024.000000 1024.000000"
 preserveAspectRatio="xMidYMid meet">

<g transform="translate(0.000000,1024.000000) scale(0.100000,-0.100000)"
fill="#000000" stroke="none">
<path d="M0 5120 l0 -5120 5120 0 5120 0 0 5120 0 5120 -5120 0 -5120 0 0
-5120z m6522 1930 c56 -16 132 -81 159 -137 20 -40 24 -63 24 -138 0 -146 -3
-150 -366 -510 l-311 -308 26 -126 c14 -69 40 -214 56 -321 17 -107 55 -330
85 -495 71 -398 70 -384 50 -431 -58 -139 -217 -148 -287 -17 -14 27 -29 59
-33 73 -7 23 -233 580 -347 855 -28 66 -51 128 -52 137 0 11 150 171 374 399
206 209 380 389 386 398 24 33 27 89 9 136 -37 98 -149 139 -243 91 -12 -6
-233 -222 -490 -479 -404 -403 -502 -497 -478 -459 2 4 16 63 30 132 26 121
28 126 67 160 l40 35 -148 89 c-180 109 -762 472 -855 534 -54 36 -70 52 -84
88 -31 82 7 173 88 213 78 37 109 31 342 -73 936 -417 1017 -454 1026 -467 5
-8 70 53 396 372 114 112 220 207 245 220 88 46 196 57 291 29z m-1195 -45
c29 -20 46 -75 34 -107 -13 -34 -129 -147 -159 -155 -36 -9 -90 21 -109 61
-23 48 -7 82 75 156 54 50 71 60 101 60 20 0 46 -7 58 -15z m-1322 -771 c8 -4
22 -19 30 -35 29 -56 21 -74 -81 -179 -114 -118 -147 -137 -198 -116 -40 17
-56 42 -56 88 0 29 13 46 112 140 95 90 118 108 145 108 17 0 39 -3 48 -6z
m218 -504 c32 -25 43 -70 25 -103 -14 -26 -572 -563 -623 -600 l-30 -21 29 39
29 40 -27 -25 c-20 -18 -25 -20 -20 -7 3 9 1 17 -4 17 -18 0 -25 40 -10 57 11
14 11 15 -2 7 -8 -5 -25 -9 -37 -9 l-23 -1 22 23 c12 13 16 23 10 23 -7 0 -12
-3 -12 -8 0 -4 -10 -13 -22 -21 -13 -7 117 127 287 298 292 292 313 311 346
311 21 0 47 -8 62 -20z m545 -116 c27 -30 29 -81 4 -109 -20 -25 -551 -546
-702 -690 -213 -203 -248 -235 -260 -235 -6 0 -8 5 -4 12 5 7 2 9 -9 5 -11 -4
-14 -2 -10 9 3 7 0 14 -6 14 -6 0 -20 18 -31 40 -22 43 -31 51 -23 21 3 -10 0
-22 -6 -25 -7 -5 -8 -1 -4 11 6 16 5 16 -10 4 -21 -17 -22 -3 -1 27 8 12 20
19 26 16 6 -4 8 -3 5 3 -7 12 877 896 918 918 39 20 84 12 113 -21z m1667
-106 c29 -26 46 -74 35 -103 -4 -11 -39 -50 -78 -87 -55 -54 -76 -68 -101 -68
-39 0 -51 22 -58 108 l-5 67 55 53 c65 60 107 69 152 30z m-1367 -213 c25 -7
52 -52 52 -89 0 -34 -40 -76 -517 -538 -382 -370 -475 -453 -428 -381 10 14
13 23 7 19 -5 -3 -17 15 -27 40 -14 37 -15 48 -4 62 11 14 11 15 -1 5 -8 -7
-18 -13 -23 -13 -4 0 -5 6 -1 13 6 9 5 9 -7 0 -13 -10 -16 -10 -16 1 0 19 844
861 882 880 17 9 37 14 45 12 8 -3 25 -7 38 -11z m207 -630 c18 -17 25 -35 25
-61 0 -33 -9 -46 -94 -130 -83 -84 -97 -94 -129 -94 -45 0 -83 33 -92 78 -7
32 -3 38 92 133 90 90 102 99 137 99 26 0 44 -7 61 -25z m-1950 -899 c165 -54
257 -194 242 -363 -10 -107 -59 -189 -145 -244 l-43 -27 111 -146 c60 -80 110
-150 110 -156 0 -6 -50 -10 -144 -10 l-145 0 -77 103 c-128 170 -111 157 -198
157 l-76 0 0 -107 c0 -165 11 -153 -140 -153 -107 0 -129 3 -134 16 -3 9 -6
221 -6 473 0 352 3 460 13 470 19 20 564 9 632 -13z m1267 -5 c208 -72 328
-240 328 -456 0 -134 -47 -244 -146 -342 -98 -99 -211 -143 -363 -143 -227 0
-423 153 -476 371 -27 111 -18 224 27 319 37 79 111 162 184 207 38 22 132 57
184 67 53 10 206 -3 262 -23z m1330 12 c15 -17 168 -388 308 -747 82 -211 84
-206 -84 -206 l-124 0 -26 55 c-14 30 -28 66 -32 80 l-6 25 -228 0 -229 0 -19
-52 c-11 -29 -26 -65 -33 -80 l-12 -28 -122 0 c-120 0 -122 0 -133 25 -12 26
5 90 56 210 29 69 68 164 107 265 89 229 176 433 193 453 13 15 36 17 192 17
156 0 179 -2 192 -17z m1154 -183 c72 -107 136 -195 143 -195 6 0 69 89 141
198 l129 197 145 0 c133 0 146 -2 156 -19 11 -21 15 -907 4 -935 -9 -24 -249
-24 -258 0 -3 9 -6 130 -6 270 0 140 -3 254 -7 254 -5 0 -31 -33 -60 -73 -28
-39 -88 -118 -133 -175 -114 -144 -105 -146 -280 75 l-135 171 -5 -266 c-3
-147 -7 -268 -8 -270 -1 -1 -59 -1 -129 0 l-128 3 -3 470 c-1 259 0 476 3 483
3 10 40 12 152 10 l148 -3 131 -195z"/>
<path d="M6268 6914 c-16 -8 -28 -23 -28 -34 0 -20 181 -225 229 -259 38 -27
52 -26 81 4 21 22 22 28 10 49 -15 29 -243 256 -256 256 -5 -1 -21 -8 -36 -16z"/>
<path d="M4199 4293 l-24 -28 28 24 c25 23 32 31 24 31 -2 0 -14 -12 -28 -27z"/>
<path d="M2960 3433 l0 -123 116 0 c87 0 125 4 151 16 63 30 87 96 58 158 -28
59 -61 70 -202 71 l-123 0 0 -122z"/>
<path d="M4351 3519 c-49 -15 -127 -97 -141 -150 -37 -136 56 -268 197 -277
53 -4 68 0 113 24 88 48 127 122 117 222 -14 134 -149 220 -286 181z"/>
<path d="M5677 3432 c-27 -70 -57 -148 -68 -174 l-19 -48 140 0 140 0 -26 68
c-15 37 -45 115 -67 175 -22 59 -43 107 -46 107 -3 0 -28 -58 -54 -128z"/>
</g>
</svg>
